<svg width="98" height="100" viewBox="0 0 98 100" fill="none" xmlns="http://www.w3.org/2000/svg">
<g clip-path="url(#clip0_123_16)">
<path d="M8.38002 14.56C8.38002 14.56 14.4 7.43 21.75 14.56C29.1 21.69 29.55 22.58 29.55 22.58C29.55 22.58 35.35 27.48 29.55 34.62C23.75 41.76 23.09 43.98 28.21 50.22C33.33 56.46 47.82 70.68 50.94 71.82C54.06 72.96 57.85 75.94 62.53 70.88C67.21 65.82 70.78 64.48 74.57 67.83C78.36 71.18 85.05 77.86 85.05 77.86C85.05 77.86 90.4 82.76 86.39 87.89C82.38 93.02 69.23 101.57 53.85 95.62C38.47 89.67 8.16002 71.84 2.81002 43.09C-2.09998 25.26 8.38002 14.56 8.38002 14.56Z" stroke="white" stroke-width="3" stroke-linecap="round" stroke-linejoin="round"/>
<path d="M69.74 1.5C55.12 1.5 43.27 13.35 43.27 27.97C43.27 33.7 45.1 39 48.19 43.34L45.13 53.4L58.4 51.9C61.84 53.53 65.68 54.45 69.74 54.45C84.36 54.45 96.21 42.6 96.21 27.98C96.21 13.36 84.36 1.5 69.74 1.5Z" stroke="white" stroke-width="3" stroke-linecap="round" stroke-linejoin="round"/>
<path d="M59.33 29.7599C60.3186 29.7599 61.12 28.9585 61.12 27.9699C61.12 26.9813 60.3186 26.1799 59.33 26.1799C58.3415 26.1799 57.54 26.9813 57.54 27.9699C57.54 28.9585 58.3415 29.7599 59.33 29.7599Z" fill="white" stroke="white" stroke-linecap="round" stroke-linejoin="round"/>
<path d="M69.74 29.7599C70.7285 29.7599 71.53 28.9585 71.53 27.9699C71.53 26.9813 70.7285 26.1799 69.74 26.1799C68.7514 26.1799 67.95 26.9813 67.95 27.9699C67.95 28.9585 68.7514 29.7599 69.74 29.7599Z" fill="white" stroke="white" stroke-linecap="round" stroke-linejoin="round"/>
<path d="M80.1501 29.7599C81.1387 29.7599 81.9401 28.9585 81.9401 27.9699C81.9401 26.9813 81.1387 26.1799 80.1501 26.1799C79.1615 26.1799 78.3601 26.9813 78.3601 27.9699C78.3601 28.9585 79.1615 29.7599 80.1501 29.7599Z" fill="white" stroke="white" stroke-linecap="round" stroke-linejoin="round"/>
</g>
<defs>
<clipPath id="clip0_123_16">
<rect width="97.71" height="99.15" fill="white"/>
</clipPath>
</defs>
</svg>
