<svg width="104" height="105" viewBox="0 0 104 105" fill="none" xmlns="http://www.w3.org/2000/svg">
<g clip-path="url(#clip0_122_9)">
<path d="M42.51 54.3899C32.41 53.4999 24.63 52.6799 24.63 52.6799L1.5 92.8099L31.69 102.48L35.85 82.1999M35.85 82.1999C22.73 83.5199 8.75 80.2299 8.75 80.2299M35.85 82.1999L38.38 69.8599M35.85 82.1999C39.64 81.8199 43.36 81.0499 46.65 79.7099C52.82 77.1899 58.86 77.8499 64.33 79.5399M38.38 69.8599C36.91 69.4499 35.29 69.1099 33.47 68.8899C20.19 67.2799 19.99 60.7399 19.99 60.7399M38.38 69.8599L41.45 54.8799M38.38 69.8599C47.67 72.4599 50.4 78.1799 50.4 78.1799M64.33 79.5399L61.21 55.8699M64.33 79.5399C71.86 81.8699 78.32 86.1599 82.54 86.7799C89.82 87.8499 96.13 87.3199 96.13 87.3199L82.99 56.5399C77.79 56.7999 69.13 56.3999 60.06 55.7899" stroke="white" stroke-width="3" stroke-linecap="round" stroke-linejoin="round"/>
<path d="M102.43 102.09L96.1201 87.31C96.1201 87.31 89.8201 87.84 82.5301 86.77C78.3101 86.15 71.8601 81.86 64.3201 79.53L66.3001 94.6L67.9001 94.21L102.42 102.1L102.43 102.09Z" stroke="white" stroke-width="3" stroke-linecap="round" stroke-linejoin="round"/>
<path d="M46.6499 79.7001C43.3599 81.0401 39.6399 81.8101 35.8499 82.1901L31.6899 102.47L32.6899 102.79L66.3099 94.5901L64.3299 79.5201C58.8599 77.8301 52.8299 77.1601 46.6499 79.6901V79.7001Z" stroke="white" stroke-width="3" stroke-linecap="round" stroke-linejoin="round"/>
<path d="M39.1599 25.2C39.1599 18.47 44.6099 13.02 51.3399 13.02C58.0699 13.02 63.5199 18.47 63.5199 25.2C63.5199 31.93 58.0699 37.38 51.3399 37.38C44.6099 37.38 39.1599 31.93 39.1599 25.2Z" stroke="white" stroke-width="3" stroke-linecap="round" stroke-linejoin="round"/>
<path d="M74.8401 24.99C74.8401 12.02 64.3201 1.5 51.3501 1.5C38.3801 1.5 27.8501 12.02 27.8501 24.99C27.8501 30.17 29.5301 34.95 32.3701 38.83L51.3501 66.64L70.3301 38.83C73.1701 34.95 74.8501 30.16 74.8501 24.99H74.8401Z" stroke="white" stroke-width="3" stroke-linecap="round" stroke-linejoin="round"/>
</g>
<defs>
<clipPath id="clip0_122_9">
<rect width="103.93" height="104.29" fill="white"/>
</clipPath>
</defs>
</svg>
